<?xml version="1.0" encoding="UTF-8" standalone="no"?>
<!-- Created with Inkscape (http://www.inkscape.org/) -->

<svg
   width="498.48074"
   height="98.17186"
   viewBox="0 0 498.48074 98.17186"
   version="1.1"
   id="svg1"
   xml:space="preserve"
   xmlns="http://www.w3.org/2000/svg"
   xmlns:svg="http://www.w3.org/2000/svg"><defs
     id="defs1" /><g
     id="layer2"
     transform="translate(-6.9263227,-216.33673)"><g
       id="g70"
       transform="matrix(0.98204903,0,0,0.98204903,4.5300275,35.60447)"><path
         id="path1-7-3"
         style="fill:#008000;stroke-width:1.15107"
         d="m 413.29883,184.04545 -4.35938,0.0566 v 4.35157 4.35351 l 4.14844,0.0391 c 2.28201,0.0216 4.24551,0.0973 4.36133,0.16796 0.13189,0.0804 0.20898,2.1262 0.20898,5.47266 0,2.93862 0.0411,5.38014 0.0898,5.42773 0.0486,0.0474 2.60044,0.10882 5.67187,0.13672 l 5.58399,0.0527 v -5.70117 -5.69922 h -5.46875 c -4.18177,0 -5.49322,-0.0616 -5.57032,-0.25977 -0.0554,-0.14253 -0.13884,-2.03101 -0.18554,-4.19726 -0.0465,-2.16624 -0.0912,-4.00976 -0.10157,-4.09766 -0.01,-0.0879 -1.98105,-0.13432 -4.3789,-0.10352 z m 69.78515,12.75977 c -1.51163,-0.0134 -2.67471,0.72064 -3.29101,2.08008 -0.42696,0.94179 -0.43931,1.27104 -0.44531,11.43945 -0.006,10.25728 0.003,10.48442 0.4375,11.29688 0.51299,0.95909 1.20933,1.64921 1.95703,1.94336 0.76832,0.30224 2.22144,0.27724 3.02539,-0.0547 0.94255,-0.38856 1.74452,-1.47895 2.01953,-2.74414 0.14924,-0.68647 0.20506,-4.46112 0.16406,-11.08008 -0.0577,-9.3421 -0.0893,-10.08846 -0.45508,-10.76367 -0.8446,-1.55916 -1.71967,-2.10229 -3.41211,-2.11719 z m -11.70703,9.14258 c -1.38789,0.07 -2.98826,1.05349 -5.11328,3.08789 -2.77648,2.65806 -4.97064,5.90981 -6.16211,9.13086 -2.52827,6.83502 -1.80663,14.67768 1.90625,20.69726 3.73753,6.05958 9.47978,10.06181 16.26758,11.3418 0.92446,0.17432 1.8685,0.35775 2.09961,0.40625 0.97429,0.20423 4.55708,0.11073 6.4082,-0.16601 5.84621,-0.87461 11.56839,-4.0074 14.92578,-8.17383 2.78989,-3.46217 4.48886,-6.95664 5.375,-11.05274 0.54797,-2.53279 0.50602,-7.34457 -0.082,-9.71484 -1.2876,-5.17644 -3.33266,-8.81517 -6.98242,-12.43164 -3.02445,-2.99685 -4.83821,-3.6866 -6.93164,-2.63477 -1.297,0.6517 -1.95424,1.89923 -1.84375,3.49805 0.10218,1.47848 0.41035,1.9315 2.4707,3.61328 4.07255,3.32425 6.16906,7.67172 6.18946,12.83984 0.0122,3.10639 -0.42966,5.13733 -1.66992,7.66993 -1.61872,3.30515 -4.22221,5.91392 -7.49024,7.5039 -2.66179,1.29503 -3.70809,1.54633 -6.90234,1.66211 -3.5736,0.12953 -5.42492,-0.26968 -8.59961,-1.85351 -6.71883,-3.35196 -10.26782,-10.73353 -8.71875,-18.13282 0.88818,-4.24244 2.20227,-6.28636 6.74218,-10.49023 1.05532,-0.97718 1.34037,-1.38397 1.53907,-2.20117 0.42901,-1.76441 -0.5114,-3.72007 -2.09961,-4.36914 -0.4269,-0.17446 -0.8655,-0.2538 -1.32813,-0.23047 z" /><path
         id="path1-7"
         style="fill:#000000;stroke-width:1.15107"
         transform="translate(0.31722427,0.44862311)"
         d="m 42.333246,192.13979 c -3.0176,-0.006 -4.862523,1.67696 -5.349943,4.88257 -0.14337,0.9431 -0.199872,8.92182 -0.165072,23.20363 0.04941,20.26486 0.07945,21.82931 0.425608,22.68456 0.74001,1.8283 1.758675,2.7843 3.482435,3.26366 1.17057,0.32554 2.896088,0.22549 3.766838,-0.21877 0.93016,-0.47457 1.82938,-1.43918 2.38858,-2.55962 l 0.495218,-0.98845 0.05569,-22.7462 c 0.05481,-22.20602 0.0458,-22.77259 -0.359978,-23.91166 -0.2286,-0.64172 -0.667753,-1.49396 -0.976513,-1.89336 -0.73717,-0.95356 -2.40296,-1.71436 -3.76286,-1.71636 z m 264.418444,0.10541 c -2.39544,0.007 -3.68814,0.81322 -4.6638,2.90169 l -0.48328,1.0322 -0.0557,22.68655 c -0.0486,19.60376 -0.0141,22.82987 0.25656,23.74857 0.54574,1.85215 1.51296,2.92876 3.17416,3.53812 1.01206,0.37125 3.10629,0.27774 4.00152,-0.17899 1.02206,-0.52148 1.94015,-1.59179 2.42637,-2.82811 0.44007,-1.11881 0.45451,-1.43992 0.47931,-10.89479 0.0228,-8.64812 0.0668,-9.86438 0.38981,-10.81325 0.52349,-1.53756 1.60717,-2.98269 2.7764,-3.69922 0.8741,-0.53567 1.25986,-0.6309 2.77242,-0.6941 1.56381,-0.0653 1.88107,-0.0133 2.90568,0.4813 1.22346,0.59058 1.99928,1.50243 2.7406,3.21991 0.37354,0.86538 0.41074,1.68125 0.50914,11.29653 0.0958,9.35641 0.14154,10.44472 0.47931,11.18317 1.04396,2.28225 2.35927,3.12054 4.87859,3.10854 1.91786,-0.009 2.62321,-0.28716 3.64552,-1.43594 1.46223,-1.64299 1.39814,-0.96105 1.39814,-14.51445 v -12.22929 l -0.59466,-1.6567 c -1.63312,-4.55968 -4.62707,-7.12042 -9.59608,-8.20788 -3.79749,-0.83106 -7.89884,-0.16145 -10.81524,1.76806 l -1.3703,0.90691 -0.002,-4.90445 c -3.2e-4,-8.88055 -0.16374,-10.34803 -1.3524,-12.04035 -0.8809,-1.25413 -2.03683,-1.78003 -3.90009,-1.77403 z m -230.90672,2.18174 c -4.68331,1.5e-4 -9.529938,1.40407 -13.271438,3.8444 -1.85179,1.2078 -5.203328,4.44489 -6.527328,6.30458 -2.07816,2.91898 -3.812254,7.07516 -4.500714,10.78739 -0.51238,2.76207 -0.513337,8.74516 -0.002,11.26273 0.47666,2.34675 1.244235,4.74649 2.143955,6.69439 3.18234,6.8898 9.847585,11.93758 17.326655,13.12426 0.86668,0.13752 1.716045,0.27676 1.889385,0.31026 1.02746,0.19862 6.281037,0.0674 7.800177,-0.19491 4.90647,-0.84712 8.958279,-3.05548 10.236489,-5.58064 0.99228,-1.96029 0.811717,-4.09966 -0.485273,-5.77555 -1.67875,-2.16918 -3.680667,-2.34002 -7.173697,-0.61057 -3.0394,1.50484 -4.142571,1.78694 -7.014591,1.78994 -1.90233,0.002 -2.730205,-0.0927 -3.888155,-0.44948 -4.72289,-1.45512 -8.155138,-5.4728 -9.255998,-10.83313 -0.49721,-2.42105 -0.329269,-7.51891 0.320201,-9.73531 0.93565,-3.19302 2.605658,-5.7951 4.884558,-7.61124 2.4262,-1.93352 4.737458,-2.76446 7.696758,-2.76446 2.16609,0 3.33732,0.25403 6.42192,1.39018 3.80647,1.40203 5.926881,1.22185 7.352691,-0.6225 1.7681,-2.2871 1.581995,-5.29359 -0.449475,-7.23933 -2.54396,-2.43659 -8.009631,-4.09119 -13.504131,-4.09101 z m -57.779383,1.33848 c -11.228551,0 -11.4687143,0.008 -12.4142543,0.43953 -1.34061,0.61178 -2.375676,1.70687 -2.955396,3.12445 l -0.493229,1.20324 -0.055687,19.88627 c -0.06262,21.97704 -0.1066176,21.17339 1.2668824,22.93912 0.88403,1.1365 1.5400383,1.603 2.9176083,2.07236 1.03716,0.35333 1.9730889,0.38383 12.0502986,0.38583 12.30368,0.003 11.869263,0.0537 13.364913,-1.5831 2.35322,-2.5753 1.69584,-6.37106 -1.3882,-8.01298 -0.81323,-0.43295 -1.105399,-0.44814 -8.983529,-0.50914 l -8.140266,-0.0637 v -5.161 -5.16101 l 7.090166,-0.0617 c 6.44312,-0.0564 7.157861,-0.0984 7.826031,-0.44947 1.93609,-1.01741 2.831167,-2.47348 2.818167,-4.58823 -0.0107,-1.74116 -0.499192,-2.81899 -1.758122,-3.88219 -1.34756,-1.13798 -1.793136,-1.19528 -9.226166,-1.19528 h -6.750076 v -4.64988 -4.64788 l 7.931439,-0.0676 c 8.85947,-0.0751 8.732552,-0.0553 10.248422,-1.59305 1.73826,-1.76342 1.769769,-5.32668 0.06364,-7.0484 -1.43666,-1.4498 -0.729815,-1.37627 -13.412645,-1.37627 z m 423.995903,0.62648 c -2.5383,0.008 -3.91318,0.96139 -4.84478,3.36112 -0.39715,1.02301 -0.47911,1.7359 -0.56881,4.95018 l -0.10341,3.75491 -1.50952,0.11336 c -1.72691,0.12886 -2.90049,0.54905 -3.76883,1.3524 -2.03504,1.88278 -1.78712,5.83718 0.46141,7.37457 0.83162,0.56861 2.43644,0.95862 3.93986,0.95862 h 0.90094 l 0.0875,10.0018 c 0.0592,6.84811 0.1665,10.28987 0.3381,10.91269 0.65373,2.37277 2.46741,4.86334 4.32371,5.93665 1.35324,0.78244 3.20832,1.3479 4.94621,1.50753 2.00953,0.18458 4.48728,-0.0208 5.91676,-0.48925 1.43029,-0.46871 3.32908,-2.28149 3.70319,-3.53613 0.37798,-1.26764 0.31693,-2.87739 -0.14319,-3.76684 -0.82875,-1.60209 -1.94822,-2.09486 -4.79506,-2.10816 -1.84554,-0.009 -1.97098,-0.0378 -2.65509,-0.63045 -1.11698,-0.96765 -1.18732,-1.5718 -1.18732,-10.11518 v -7.64902 l 2.66104,-0.14121 c 1.85251,-0.0977 2.91997,-0.25399 3.51824,-0.5151 2.91727,-1.2732 3.62061,-5.54839 1.26489,-7.6908 -1.17999,-1.07314 -2.54932,-1.45979 -5.17095,-1.45979 -1.49951,0 -2.0676,-0.0702 -2.0823,-0.25855 -0.0111,-0.14251 -0.0476,-1.89094 -0.0795,-3.88617 -0.0438,-2.73243 -0.14143,-3.85302 -0.39975,-4.5385 -0.93792,-2.48891 -2.26116,-3.44668 -4.7533,-3.43868 z M 211.2741,207.89527 c -3.06583,0.009 -6.44656,1.28488 -8.3292,3.14235 -0.55575,0.5483 -1.04353,0.97131 -1.11971,0.97452 l -0.002,-0.002 h -0.002 -0.002 v -0.002 h -0.002 c -0.0367,-0.0407 -0.25969,-0.44687 -0.4972,-0.90292 -0.97936,-1.88065 -2.23961,-2.67792 -4.24217,-2.68492 -1.7343,-0.006 -3.14463,0.63048 -4.01345,1.81381 -1.28478,1.74973 -1.23904,0.85938 -1.23904,24.50234 0,24.56984 -0.10012,23.10248 1.67061,24.79669 0.60393,0.57784 1.32426,1.0426 1.81779,1.17142 2.7966,0.72993 5.0941,-0.18048 6.34038,-2.51189 l 0.57079,-1.068 0.0636,-6.9947 0.0617,-6.99471 1.26688,1.04016 c 2.55684,2.09936 4.78407,2.79172 8.48234,2.6352 4.04043,-0.17101 7.40718,-1.7454 10.40356,-4.86268 1.33191,-1.38566 1.85592,-2.14001 2.80822,-4.04329 0.64765,-1.2944 1.42255,-3.26413 1.73624,-4.41122 0.51253,-1.87415 0.57012,-2.4299 0.58472,-5.80339 0.0125,-2.90491 -0.0711,-4.12338 -0.3739,-5.49513 -0.86077,-3.89943 -2.61823,-7.22316 -5.14907,-9.73928 -2.94906,-2.9319 -6.84435,-4.57188 -10.83513,-4.56038 z m 75.15974,0.0418 c -1.30156,-0.0391 -2.57501,0.0406 -3.73303,0.25655 -8.26872,1.54206 -14.02934,8.00286 -15.05343,16.88514 -0.5538,4.80336 0.69023,10.50276 3.03694,13.92178 2.69649,3.92863 6.84274,6.63548 11.59088,7.5655 2.06359,0.40419 6.43626,0.25382 8.54599,-0.29435 5.26801,-1.36883 7.77988,-3.54665 7.76438,-6.73018 -0.0118,-2.42492 -1.60674,-4.26349 -3.85435,-4.44304 -1.17795,-0.0941 -1.52282,9.5e-4 -4.66578,1.2987 -1.66552,0.68759 -2.07602,0.7756 -3.69723,0.7836 -1.6085,0.007 -1.9878,-0.0671 -3.20798,-0.63046 -4.77384,-2.20408 -6.61265,-8.91608 -3.94981,-14.42098 0.74551,-1.54116 2.47369,-3.25964 3.95777,-3.93589 0.8367,-0.38123 1.37204,-0.45428 3.3094,-0.45345 2.21773,9.6e-4 2.38788,0.0324 4.20239,0.80349 2.10042,0.89258 3.73566,1.05515 4.85075,0.4793 2.96379,-1.53053 3.50754,-5.84798 1.00834,-8.01298 -2.04411,-1.77075 -6.20056,-2.95559 -10.10523,-3.07273 z m 111.87347,0 c -2.87478,0.10249 -6.13392,1.31618 -7.94337,3.03693 -0.61267,0.58264 -1.13192,1.03753 -1.15352,1.01033 -0.0216,-0.0272 -0.19689,-0.38113 -0.38782,-0.78559 -0.90644,-1.92027 -2.94317,-3.04829 -5.10532,-2.82811 -2.25708,0.22983 -3.98486,1.83978 -4.47486,4.16858 -0.15083,0.71746 -0.20606,5.7827 -0.16706,15.36965 l 0.0597,14.29966 0.69212,1.3882 c 0.74537,1.49355 1.44793,2.12424 2.84601,2.55564 2.07395,0.63995 3.8294,0.25502 5.20277,-1.14158 1.74008,-1.76953 1.72478,-1.66346 1.87148,-12.86373 0.093,-7.09968 0.20256,-10.07815 0.39578,-10.67602 0.63898,-1.97709 2.18267,-3.7466 3.72308,-4.26802 1.02717,-0.34797 3.0852,-0.34326 4.16063,0.01 1.20262,0.39483 2.49348,1.67787 3.19206,3.17019 l 0.60659,1.29473 0.10541,10.26632 0.10541,10.26632 0.69211,1.38621 c 0.98218,1.96755 2.46425,2.857 4.74335,2.848 2.09039,-0.009 3.91656,-1.39111 4.67573,-3.5421 0.36704,-1.04007 0.39284,-1.89021 0.38584,-12.41425 -0.007,-11.02268 -0.0183,-11.3392 -0.47335,-12.95721 -0.73868,-2.62642 -1.60808,-4.16818 -3.28355,-5.82527 -2.30522,-2.27991 -5.06111,-3.39228 -9.26594,-3.74297 -0.38957,-0.0325 -0.79256,-0.0405 -1.20324,-0.0258 z m -224.48082,0.0278 c -3.87093,-0.0469 -7.94438,1.59372 -10.11716,4.19443 l -0.67023,0.80349 -0.99243,-1.11772 c -1.3253,-1.49477 -3.12027,-2.60271 -5.30022,-3.27162 -4.40801,-1.3526 -9.57555,-0.29193 -12.69468,2.60536 -0.53619,0.49828 -0.84847,0.6651 -0.91287,0.49124 -0.0539,-0.14519 -0.39669,-0.70094 -0.76172,-1.23506 -0.92656,-1.35573 -2.30095,-2.02847 -4.12483,-2.01667 -2.34189,0.0152 -3.89574,1.14879 -4.65982,3.39692 -0.45966,1.35219 -0.46434,1.4802 -0.47334,15.66598 l -0.008,14.30364 0.48328,1.19529 c 0.74598,1.84387 1.65578,2.72583 3.39095,3.28753 0.28964,0.0942 1.12317,0.13678 1.8516,0.0955 1.96693,-0.11181 3.08049,-0.85675 4.03334,-2.69884 l 0.73387,-1.42201 0.10541,-10.48907 c 0.1039,-10.37368 0.11099,-10.5016 0.58472,-11.5153 1.15652,-2.47473 2.39694,-3.31935 4.87859,-3.31935 2.30462,0 3.59839,0.76106 4.58027,2.69287 0.78527,1.54506 0.88303,2.93675 0.88303,12.56142 0,5.76402 0.0842,9.67064 0.22275,10.30809 0.54123,2.4899 2.18043,3.79696 4.92434,3.92594 1.81555,0.0853 3.01392,-0.44386 4.03533,-1.78 1.28328,-1.67864 1.32257,-2.03504 1.32257,-12.27304 0,-5.7892 0.0855,-9.71078 0.22871,-10.47515 0.30714,-1.63918 1.04177,-3.005 2.09225,-3.89213 2.08174,-1.75808 5.69781,-1.41943 7.19159,0.67421 1.30317,1.82642 1.28073,1.62577 1.40411,13.17398 0.10884,10.18776 0.13054,10.60623 0.55687,11.51531 0.66308,1.41393 1.63866,2.39596 2.75254,2.77043 1.1296,0.37973 3.01577,0.40525 3.99356,0.0537 0.94536,-0.33992 2.03252,-1.40993 2.61332,-2.57354 l 0.49323,-0.98646 0.0597,-11.58292 c 0.0695,-13.21207 0.0257,-13.71535 -1.43395,-16.62261 -1.81207,-3.60904 -4.89749,-5.63438 -9.62592,-6.31652 -0.53862,-0.0777 -1.08779,-0.12058 -1.64078,-0.12728 z m 72.9243,0.0119 c -3.31414,0.18491 -6.5434,1.29919 -9.26992,3.32134 -2.11394,1.56783 -4.10532,3.82979 -5.16499,5.86704 -1.94051,3.73078 -2.54347,6.24001 -2.53177,10.52487 0.011,4.02761 0.87002,7.29966 2.74458,10.45327 2.69198,4.52878 8.0096,7.77008 13.94963,8.50422 1.95613,0.24177 5.35286,0.10801 7.24131,-0.2844 5.02935,-1.04503 9.59323,-3.79927 10.90673,-6.58302 0.7918,-1.67809 0.60704,-3.11576 -0.56881,-4.43707 -0.88375,-0.99308 -1.69015,-1.36476 -2.99318,-1.37626 -1.31348,-0.0117 -2.39119,0.31468 -3.72706,1.12567 -3.05767,1.85624 -6.29137,2.61061 -9.59012,2.23942 -3.66737,-0.41268 -5.96693,-2.2301 -7.16375,-5.66219 l -0.40771,-1.16943 11.48945,-0.0577 c 11.05871,-0.0564 11.51702,-0.0743 12.19349,-0.47334 2.68873,-1.58603 2.08075,-8.32798 -1.25694,-13.94366 -1.039,-1.74814 -4.17722,-4.74122 -6.0699,-5.78947 -3.06748,-1.69889 -6.46691,-2.44421 -9.78104,-2.25931 z m 107.71085,0.008 c -1.36,0.0173 -2.75737,0.18728 -3.78871,0.50317 -5.38234,1.64858 -9.19722,5.40886 -11.25875,11.09964 -1.76194,4.86369 -1.80433,10.7634 -0.11336,15.6103 2.03364,5.82908 6.86867,10.25269 12.41426,11.3562 4.24256,0.84422 8.10896,-0.16489 10.96837,-2.86192 0.58056,-0.54758 1.06811,-0.96726 1.08391,-0.93276 0.87199,1.91365 1.95168,2.97633 3.46653,3.41083 2.15543,0.61821 4.22491,0.0312 5.4275,-1.53935 1.23166,-1.60851 1.20115,-1.2181 1.27285,-16.70216 0.0721,-15.58327 0.0607,-15.77672 -1.12567,-17.54543 -0.81789,-1.2194 -2.85366,-2.17843 -4.272,-2.01269 -1.87132,0.21866 -3.34642,1.27386 -4.17455,2.98722 -0.18067,0.3738 -0.39324,0.68018 -0.47334,0.68018 -0.0802,0 -0.65101,-0.47469 -1.26887,-1.05607 -1.1762,-1.10682 -2.65763,-1.93927 -4.60214,-2.58746 -0.87495,-0.29171 -2.19602,-0.42698 -3.55603,-0.4097 z m -245.38338,0.0179 c -1.36421,-0.0311 -2.75053,0.0986 -3.81855,0.39776 -7.541597,2.11243 -12.566107,8.99401 -13.168017,18.03468 -0.64531,9.69256 5.153301,18.32291 13.496177,20.08715 4.33352,0.91638 8.32071,-0.0793 11.29852,-2.82016 0.80871,-0.74427 1.06826,-0.98151 1.15153,-0.93674 0.0365,0.0236 0.0398,0.10796 0.0398,0.22872 0,0.65748 1.29509,2.16448 2.35875,2.74458 1.45987,0.79618 3.55847,0.84994 4.95217,0.12529 0.97081,-0.50478 1.99501,-1.86868 2.35676,-3.13836 0.12946,-0.45433 0.20884,-6.30491 0.20684,-15.3975 -0.003,-14.49219 -0.009,-14.67617 -0.45544,-15.85691 -1.0379,-2.74485 -4.16489,-3.92264 -6.83162,-2.57354 -0.98198,0.49679 -1.56517,1.10571 -2.1718,2.26527 l -0.46339,0.88503 -0.86912,-0.78956 c -1.40722,-1.2779 -2.77844,-2.11591 -4.39531,-2.68691 -0.97948,-0.3459 -2.32307,-0.53766 -3.68728,-0.5688 z m 313.96806,0.31224 c -2.7481,0 -4.54772,1.63243 -5.14111,4.66181 -0.36242,1.85014 -0.19856,28.94529 0.18098,29.95372 0.52562,1.39655 1.34947,2.35876 2.52979,2.94943 2.0935,1.04763 4.36213,0.71196 5.92272,-0.87509 1.69894,-1.72777 1.63559,-1.06591 1.69249,-17.52355 0.0562,-16.25788 0.10134,-15.72761 -1.44985,-17.51559 -0.99809,-1.15046 -2.13,-1.65073 -3.73502,-1.65073 z m -175.09826,8.31131 c 2.00874,0.004 4.02001,0.79378 5.42154,2.36869 0.80531,0.90493 1.90703,3.08355 1.90728,3.77082 v 0.46737 h -7.48196 -7.48196 l 0.13722,-0.57079 c 0.25479,-1.05586 1.14894,-2.63706 2.08429,-3.68729 1.39817,-1.56983 3.40485,-2.35243 5.41359,-2.3488 z M 109.8718,217.7857 c 2.379,-0.0678 4.77145,1.18499 6.09575,3.78872 1.05648,2.07716 1.31783,3.18965 1.33053,5.67213 0.014,2.73774 -0.27477,4.09625 -1.27285,5.99432 -0.92866,1.76608 -2.42406,3.1384 -3.89015,3.56796 -2.58606,0.75772 -5.31589,-0.042 -6.95492,-2.03656 -2.62932,-3.19972 -3.20903,-8.85606 -1.31859,-12.85378 1.26618,-2.67759 3.63123,-4.06496 6.01023,-4.13279 z m 99.81124,0.1611 c 1.81091,-5.2e-4 2.0901,0.0532 3.00313,0.58272 1.55015,0.89901 2.3323,1.67343 3.06677,3.03297 1.11336,2.06097 1.37047,3.16113 1.35837,5.81532 -0.009,2.00257 -0.10013,2.65402 -0.5708,4.07511 -0.80294,2.42433 -2.02327,3.99069 -3.74297,4.805 -2.9366,1.3905 -5.68878,0.87225 -7.89166,-1.48565 -1.10455,-1.18227 -1.66017,-2.26419 -2.16981,-4.23023 -1.26677,-4.88678 0.53163,-10.26899 4.04925,-12.11991 0.75735,-0.39842 1.2212,-0.47485 2.89772,-0.47533 z m 146.33983,0.002 c 1.70555,-0.002 2.00153,0.0576 3.01705,0.61256 2.0146,1.10094 3.47616,3.3095 4.02936,6.08382 0.40245,2.01816 0.16494,5.41066 -0.50118,7.13988 -1.01063,2.6235 -2.68599,4.46056 -4.5743,5.01383 -3.43216,1.00561 -6.45984,-0.45327 -8.25164,-3.97566 -2.50633,-4.92706 -0.82493,-12.16791 3.32532,-14.32154 0.92227,-0.47866 1.31608,-0.55189 2.95539,-0.55289 z m 58.51525,37.93686 c -1.41328,0.004 -1.96217,0.098 -2.62724,0.44749 -1.9146,1.00625 -2.65395,2.5228 -2.78833,5.71588 l -0.0935,2.22749 h -1.00038 c -1.22359,0 -2.00477,0.53858 -2.29709,1.5831 -0.45947,1.64182 0.68661,2.97651 2.55564,2.97728 h 0.78758 l 0.006,6.37419 c 0.006,4.78556 0.0762,6.49394 0.27844,6.85349 0.64986,1.15543 2.26379,1.60147 3.50431,0.96856 1.20707,-0.61589 1.25296,-0.90682 1.25296,-7.86183 v -6.33441 h 1.247 c 1.46041,0 2.29545,-0.26374 2.77441,-0.87707 l 0.34605,-0.44152 0.51113,0.58869 c 0.42209,0.48414 0.72332,0.60395 1.70443,0.68415 l 1.1913,0.0975 v 5.33403 c 0,5.62112 0.0786,6.21136 0.98845,7.42031 0.64929,0.86274 1.32425,1.29449 2.55166,1.6368 2.05643,0.57353 4.90803,-0.0919 5.45337,-1.27284 0.42039,-0.91031 0.31193,-1.93519 -0.26452,-2.50394 -0.43244,-0.42662 -0.71753,-0.50715 -1.77005,-0.50715 -1.96691,0 -1.91524,0.14482 -1.91524,-5.38176 v -4.73142 l 1.55725,-0.0776 c 1.70758,-0.0851 2.27227,-0.39377 2.75253,-1.50554 l 0.26253,-0.6066 0.15115,0.67819 c 0.17352,0.77946 4.75175,13.7151 5.161,14.58208 0.83089,1.76022 4.22773,1.89249 5.1093,0.19888 0.33665,-0.64675 2.24929,-6.44262 2.66701,-8.08259 0.1408,-0.55272 0.31381,-0.95142 0.40175,-0.9427 h 0.002 0.002 0.002 c 0.004,0.002 0.0102,0.006 0.0139,0.01 0.079,0.0865 0.78369,2.06997 1.56719,4.40724 0.7835,2.33727 1.56765,4.4651 1.74022,4.72744 0.68156,1.03624 2.74132,1.42396 4.03931,0.76172 0.81851,-0.41761 1.08683,-0.97775 2.63321,-5.48916 0.72298,-2.10925 1.84436,-5.32791 2.49001,-7.15182 0.64566,-1.8239 1.1734,-3.57662 1.1734,-3.89611 0,-0.73939 -0.49332,-1.6858 -1.09584,-2.10219 -0.76377,-0.52782 -2.32708,-0.42143 -3.08865,0.21082 -0.68669,0.5701 -1.10735,1.7168 -2.86987,7.80813 -0.45344,1.56705 -0.87859,2.84935 -0.94469,2.84999 h -0.002 -0.002 l -0.002,-0.002 c -0.0813,-0.0566 -0.42697,-0.98996 -0.7836,-2.12208 -2.61425,-8.29895 -2.89668,-8.89089 -4.35354,-9.16054 -0.85998,-0.15918 -2.00877,0.27683 -2.48007,0.94072 -0.38873,0.54756 -0.95789,2.22031 -2.35278,6.92509 -0.70703,2.38476 -1.13774,3.59346 -1.29273,3.64154 h -0.002 -0.002 c -0.002,-4e-5 -0.003,7e-5 -0.004,0 h -0.002 -0.002 -0.002 l -0.002,-0.002 h -0.002 l -0.002,-0.002 -0.002,-0.002 -0.002,-0.002 c -0.0235,-0.0277 -0.0378,-0.10798 -0.0378,-0.23468 0,-0.32377 -2.50964,-8.5644 -2.91562,-9.57421 -0.43967,-1.09358 -1.22478,-1.59902 -2.48404,-1.59902 -0.96525,0 -1.21409,0.0852 -1.66465,0.56483 -0.29136,0.31019 -0.58246,0.82864 -0.64836,1.15352 l -0.12132,0.59068 -0.44748,-0.78758 c -0.58036,-1.02079 -1.19229,-1.30763 -2.80226,-1.31063 l -1.31262,-0.004 v -2.09225 c 0,-1.50817 -0.0966,-2.29371 -0.34407,-2.80822 -0.68352,-1.42114 -2.68896,-1.7878 -3.90804,-0.71399 l -0.68615,0.60461 -0.0696,2.50592 -0.0696,2.50393 h -1.00435 c -0.70699,0 -1.21971,0.14409 -1.73227,0.48726 l -0.72592,0.48726 -0.57477,-0.48726 c -0.49137,-0.41707 -0.79914,-0.48726 -2.13799,-0.48726 h -1.56521 l 0.002,-1.19131 c 1.9e-4,-0.71935 0.14424,-1.47935 0.36594,-1.91723 0.34103,-0.67353 0.45572,-0.73525 1.58709,-0.85519 1.56812,-0.16622 2.24737,-0.73764 2.24737,-1.8874 0,-1.88532 -0.98448,-2.54673 -3.78076,-2.53973 z m -37.16321,1.25694 c -2.88865,-0.0868 -5.29615,0.78403 -7.12,2.58348 -2.26065,2.23042 -2.94006,5.52602 -1.70641,8.28148 0.85769,1.9157 2.05019,2.69646 6.21508,4.07112 4.50674,1.48748 5.137,1.92366 5.1809,3.57989 0.0287,1.0818 -0.36888,1.73793 -1.41008,2.32494 -1.29474,0.72995 -3.09325,0.65779 -5.28232,-0.21082 -0.92448,-0.36683 -2.20439,-0.71979 -2.84204,-0.78359 -1.07299,-0.10741 -1.20842,-0.0698 -1.82574,0.49919 -1.57166,1.44852 -1.03254,3.60266 1.17739,4.70755 0.9985,0.4992 2.75758,1.05255 3.91003,1.2291 0.34669,0.0533 1.71797,0.0645 3.04688,0.0258 2.80131,-0.0814 4.41553,-0.55112 6.03808,-1.75613 1.11617,-0.82894 2.23527,-2.33846 2.58746,-3.49238 0.84358,-2.76395 0.28477,-5.83844 -1.39417,-7.68085 -1.13875,-1.24962 -2.58165,-1.98346 -5.94858,-3.025 -3.63358,-1.12402 -4.22426,-1.53285 -4.22426,-2.91761 0,-1.14174 0.5646,-1.8312 1.77602,-2.16583 1.10065,-0.30404 2.34654,-0.18267 4.28194,0.41566 1.85421,0.57325 2.61722,0.53629 3.41283,-0.16507 0.91008,-0.80228 1.06597,-2.12636 0.36992,-3.15428 -0.72508,-1.07078 -2.78126,-2.00904 -4.97604,-2.27124 -0.432,-0.0516 -0.85422,-0.0831 -1.26689,-0.0955 z m 123.36889,6.59892 c -2.15074,-0.0369 -4.32514,0.7528 -6.16934,2.37466 -2.06337,1.81461 -3.13837,4.45763 -3.13837,7.71864 0,4.65454 2.82906,8.45312 7.08023,9.50659 1.38383,0.34293 5.04068,0.12401 6.57704,-0.39379 1.73204,-0.58375 3.30185,-1.5679 3.80662,-2.3846 0.72562,-1.17399 0.39363,-2.79431 -0.68615,-3.34521 -0.90264,-0.46053 -1.46306,-0.35976 -2.96335,0.53301 -1.84504,1.09791 -3.41444,1.49897 -4.82489,1.23506 -1.0986,-0.20557 -1.31484,-0.31847 -2.33886,-1.22512 -0.58115,-0.51456 -1.39815,-1.84762 -1.39815,-2.28118 0,-0.14397 1.92082,-0.21678 5.78749,-0.21678 7.21624,0 7.23933,-0.007 7.23933,-2.36273 0,-2.28755 -1.14045,-4.82672 -2.95142,-6.57506 -1.74365,-1.68335 -3.86944,-2.54663 -6.02018,-2.58349 z m -32.88524,0.0139 c -0.48392,-0.0128 -0.98964,0.0275 -1.51748,0.12131 -4.34999,0.77332 -7.24482,4.82314 -7.25722,10.15097 -0.0102,4.37838 2.46357,8.08964 6.14945,9.22617 1.23262,0.38012 3.45654,0.3653 4.63794,-0.0318 0.54575,-0.18347 1.33509,-0.65208 1.75216,-1.04016 0.38446,-0.35776 0.71467,-0.63468 0.77564,-0.65233 h 0.002 0.002 0.002 0.002 v 0.002 h 0.002 c 0.47428,0.95066 0.72147,1.23338 1.33252,1.51946 1.05031,0.49174 2.25276,0.28761 3.07273,-0.52107 l 0.65035,-0.6404 0.0616,-7.55556 c 0.0664,-8.05092 -0.0102,-8.88443 -0.9069,-9.76911 -0.39822,-0.3929 -0.72399,-0.49522 -1.58311,-0.49522 -0.94002,0 -1.17033,0.0884 -1.7621,0.67421 -0.37433,0.37054 -0.72314,0.80306 -0.77564,0.96061 -0.0688,0.20628 -0.29846,0.10032 -0.82139,-0.37788 -1.10649,-1.01186 -2.3668,-1.53276 -3.81854,-1.57117 z m -71.98955,0.006 c -0.3033,0.0127 -0.60738,0.0433 -0.91088,0.0915 -3.79662,0.60326 -7.03446,3.78011 -7.76239,7.61522 -0.12509,0.66226 -0.18131,1.99821 -0.12331,2.96732 0.24929,4.16559 2.59593,7.42286 6.22503,8.64344 2.43171,0.81785 5.59471,0.55934 7.63908,-0.62449 3.34204,-1.93523 5.16309,-6.07395 4.56237,-10.36775 -0.67228,-4.80522 -5.08038,-8.51597 -9.6299,-8.32523 z m 93.20237,0.10143 c -1.01241,0 -2.49208,0.78548 -3.23582,1.71835 l -0.42561,0.533 -0.36396,-0.81541 c -0.20058,-0.44856 -0.54685,-0.91256 -0.76967,-1.03022 -0.65421,-0.34543 -2.22959,-0.28936 -2.83408,0.10143 -1.09262,0.7064 -1.14159,1.11302 -1.14159,9.44693 0,8.48722 0.0103,8.556 1.30269,9.1844 0.38157,0.18554 0.97589,0.34008 1.32257,0.34208 0.7195,0.005 1.87469,-0.62169 2.16782,-1.1754 0.10885,-0.20562 0.24905,-2.68105 0.31025,-5.4991 0.10481,-4.82126 0.13639,-5.1608 0.56284,-5.75169 0.5743,-0.79575 1.86151,-1.53288 3.46454,-1.98684 1.6602,-0.47014 2.42438,-1.21612 2.42438,-2.3667 0,-1.70948 -1.02148,-2.70083 -2.78436,-2.70083 z m 11.60878,4.28592 c 1.24077,0 2.13787,0.3536 2.87982,1.13761 0.45049,0.47602 1.11175,1.80943 1.11175,2.23942 v 0.002 0.002 l -0.002,0.002 v 0.002 0.002 c -3.2e-4,5e-4 -0.003,0.003 -0.004,0.004 v 0.002 c -0.12252,0.12749 -1.50231,0.19888 -3.98561,0.19888 -4.41054,0 -4.3341,0.0263 -3.65149,-1.30665 0.80523,-1.57239 1.94355,-2.28517 3.65149,-2.28517 z m -32.35622,0.4813 c 1.37805,0 2.31067,0.49502 3.09462,1.64277 1.09207,1.59886 1.19129,4.45556 0.21877,6.33839 -0.64354,1.2459 -1.13237,1.71014 -2.19567,2.08429 -1.07019,0.37657 -1.48564,0.3615 -2.492,-0.0895 -2.48719,-1.11468 -3.36245,-4.88415 -1.83369,-7.89763 0.7735,-1.5247 1.62877,-2.07832 3.20797,-2.07832 z m -72.20036,0.0159 c 0.84382,0.0217 1.76876,0.24697 2.33289,0.6225 1.14416,0.76162 1.85228,2.34648 1.87348,4.19444 0.0106,0.92122 -0.12277,1.89032 -0.35004,2.53973 -0.43241,1.23563 -1.64438,2.49446 -2.68292,2.78833 -1.72971,0.48944 -3.28481,-0.28121 -4.30581,-2.13202 -1.48033,-2.68348 -0.51791,-6.87644 1.79591,-7.82205 0.35281,-0.14419 0.8302,-0.20395 1.33649,-0.19093 z" /></g></g></svg>
